<svg width="471" height="37" viewBox="0 0 471 37" fill="none" xmlns="http://www.w3.org/2000/svg">
<path d="M0.3125 1.57031H5.75L15.6406 18.1172L25.5312 1.57031H30.9922L17.9844 22.125V36H13.3203V22.125L0.3125 1.57031ZM49.8594 0.632812C55.9375 0.632812 60.4375 2.58594 63.3594 6.49219C65.6406 9.53906 66.7812 13.4375 66.7812 18.1875C66.7812 23.3281 65.4766 27.6016 62.8672 31.0078C59.8047 35.0078 55.4375 37.0078 49.7656 37.0078C44.4688 37.0078 40.3047 35.2578 37.2734 31.7578C34.5703 28.3828 33.2188 24.1172 33.2188 18.9609C33.2188 14.3047 34.375 10.3203 36.6875 7.00781C39.6562 2.75781 44.0469 0.632812 49.8594 0.632812ZM50.3281 32.8359C54.4375 32.8359 57.4062 31.3672 59.2344 28.4297C61.0781 25.4766 62 22.0859 62 18.2578C62 14.2109 60.9375 10.9531 58.8125 8.48438C56.7031 6.01563 53.8125 4.78125 50.1406 4.78125C46.5781 4.78125 43.6719 6.00781 41.4219 8.46094C39.1719 10.8984 38.0469 14.5 38.0469 19.2656C38.0469 23.0781 39.0078 26.2969 40.9297 28.9219C42.8672 31.5312 46 32.8359 50.3281 32.8359ZM77.4219 1.57031V22.8516C77.4219 25.3516 77.8906 27.4297 78.8281 29.0859C80.2188 31.5859 82.5625 32.8359 85.8594 32.8359C89.8125 32.8359 92.5 31.4844 93.9219 28.7812C94.6875 27.3125 95.0703 25.3359 95.0703 22.8516V1.57031H99.8047V20.9062C99.8047 25.1406 99.2344 28.3984 98.0938 30.6797C96 34.8359 92.0469 36.9141 86.2344 36.9141C80.4219 36.9141 76.4766 34.8359 74.3984 30.6797C73.2578 28.3984 72.6875 25.1406 72.6875 20.9062V1.57031H77.4219ZM120.289 1.57031H126.969L136.859 30.6797L146.68 1.57031H153.289V36H148.859V15.6797C148.859 14.9766 148.875 13.8125 148.906 12.1875C148.938 10.5625 148.953 8.82031 148.953 6.96094L139.133 36H134.516L124.625 6.96094V8.01562C124.625 8.85938 124.641 10.1484 124.672 11.8828C124.719 13.6016 124.742 14.8672 124.742 15.6797V36H120.289V1.57031ZM178.062 21.8906L172.836 6.67969L167.281 21.8906H178.062ZM170.398 1.57031H175.672L188.164 36H183.055L179.562 25.6875H165.945L162.219 36H157.438L170.398 1.57031ZM186.172 1.57031H191.609L201.5 18.1172L211.391 1.57031H216.852L203.844 22.125V36H199.18V22.125L186.172 1.57031ZM248.422 21.8906L243.195 6.67969L237.641 21.8906H248.422ZM240.758 1.57031H246.031L258.523 36H253.414L249.922 25.6875H236.305L232.578 36H227.797L240.758 1.57031ZM262.766 1.57031H267.43V31.8984H284.867V36H262.766V1.57031ZM292.531 24.8906C292.641 26.8438 293.102 28.4297 293.914 29.6484C295.461 31.9297 298.188 33.0703 302.094 33.0703C303.844 33.0703 305.438 32.8203 306.875 32.3203C309.656 31.3516 311.047 29.6172 311.047 27.1172C311.047 25.2422 310.461 23.9062 309.289 23.1094C308.102 22.3281 306.242 21.6484 303.711 21.0703L299.047 20.0156C296 19.3281 293.844 18.5703 292.578 17.7422C290.391 16.3047 289.297 14.1562 289.297 11.2969C289.297 8.20312 290.367 5.66406 292.508 3.67969C294.648 1.69531 297.68 0.703125 301.602 0.703125C305.211 0.703125 308.273 1.57812 310.789 3.32812C313.32 5.0625 314.586 7.84375 314.586 11.6719H310.203C309.969 9.82812 309.469 8.41406 308.703 7.42969C307.281 5.63281 304.867 4.73438 301.461 4.73438C298.711 4.73438 296.734 5.3125 295.531 6.46875C294.328 7.625 293.727 8.96875 293.727 10.5C293.727 12.1875 294.43 13.4219 295.836 14.2031C296.758 14.7031 298.844 15.3281 302.094 16.0781L306.922 17.1797C309.25 17.7109 311.047 18.4375 312.312 19.3594C314.5 20.9688 315.594 23.3047 315.594 26.3672C315.594 30.1797 314.203 32.9062 311.422 34.5469C308.656 36.1875 305.438 37.0078 301.766 37.0078C297.484 37.0078 294.133 35.9141 291.711 33.7266C289.289 31.5547 288.102 28.6094 288.148 24.8906H292.531ZM336.359 0.632812C342.438 0.632812 346.938 2.58594 349.859 6.49219C352.141 9.53906 353.281 13.4375 353.281 18.1875C353.281 23.3281 351.977 27.6016 349.367 31.0078C346.305 35.0078 341.938 37.0078 336.266 37.0078C330.969 37.0078 326.805 35.2578 323.773 31.7578C321.07 28.3828 319.719 24.1172 319.719 18.9609C319.719 14.3047 320.875 10.3203 323.188 7.00781C326.156 2.75781 330.547 0.632812 336.359 0.632812ZM336.828 32.8359C340.938 32.8359 343.906 31.3672 345.734 28.4297C347.578 25.4766 348.5 22.0859 348.5 18.2578C348.5 14.2109 347.438 10.9531 345.312 8.48438C343.203 6.01563 340.312 4.78125 336.641 4.78125C333.078 4.78125 330.172 6.00781 327.922 8.46094C325.672 10.8984 324.547 14.5 324.547 19.2656C324.547 23.0781 325.508 26.2969 327.43 28.9219C329.367 31.5312 332.5 32.8359 336.828 32.8359ZM372.219 1.57031H376.883V31.8984H394.32V36H372.219V1.57031ZM399.992 1.57031H404.703V36H399.992V1.57031ZM412.297 1.57031H416.844V18.3516L433.625 1.57031H440.07L425.75 15.4453L440.469 36H434.398L422.352 18.7266L416.844 24V36H412.297V1.57031ZM444.758 1.57031H469.859V5.78906H449.305V16.2422H468.312V20.2266H449.305V31.8984H470.211V36H444.758V1.57031Z" fill="black"/>
</svg>
