<svg width="672" height="24" viewBox="0 0 672 24" fill="none" xmlns="http://www.w3.org/2000/svg">
<path d="M12 2L15.09 8.26L22 9.27L17 14.14L18.18 21.02L12 17.77L5.82 21.02L7 14.14L2 9.27L8.91 8.26L12 2Z" fill="#FFC347"/>
<path d="M40 2L43.09 8.26L50 9.27L45 14.14L46.18 21.02L40 17.77L33.82 21.02L35 14.14L30 9.27L36.91 8.26L40 2Z" fill="#FFC347"/>
<path d="M68 2L71.09 8.26L78 9.27L73 14.14L74.18 21.02L68 17.77L61.82 21.02L63 14.14L58 9.27L64.91 8.26L68 2Z" fill="#FFC347"/>
<path d="M96 2L99.09 8.26L106 9.27L101 14.14L102.18 21.02L96 17.77L89.82 21.02L91 14.14L86 9.27L92.91 8.26L96 2Z" fill="#FFC347"/>
<mask id="mask0_4_356" style="mask-type:alpha" maskUnits="userSpaceOnUse" x="114" y="2" width="20" height="20">
<path d="M124 2L127.09 8.26L134 9.27L129 14.14L130.18 21.02L124 17.77L117.82 21.02L119 14.14L114 9.27L120.91 8.26L124 2Z" fill="#FFC347"/>
</mask>
<g mask="url(#mask0_4_356)">
<rect x="113" width="23" height="22" fill="#EEEEEE"/>
<rect x="113" width="11" height="22" fill="#FFC347"/>
</g>
<path d="M144.432 3.176C143.664 4.28533 143.061 5.47467 142.624 6.744C142.197 8.00267 141.984 9.30933 141.984 10.664C141.984 11.9973 142.208 13.288 142.656 14.536C143.104 15.784 143.696 16.9573 144.432 18.056H143.616C143.179 17.448 142.789 16.856 142.448 16.28C142.107 15.7147 141.819 15.1387 141.584 14.552C141.349 13.9547 141.173 13.336 141.056 12.696C140.939 12.0453 140.88 11.3413 140.88 10.584C140.88 9.848 140.939 9.16 141.056 8.52C141.184 7.86933 141.365 7.24533 141.6 6.648C141.835 6.05067 142.117 5.46933 142.448 4.904C142.789 4.328 143.179 3.752 143.616 3.176H144.432ZM149.792 9.48C149.397 9.48 149.035 9.528 148.704 9.624C148.373 9.72 148.085 9.86933 147.84 10.072C147.595 10.264 147.403 10.5147 147.264 10.824C147.125 11.1227 147.056 11.48 147.056 11.896C147.056 12.248 147.12 12.5733 147.248 12.872C147.387 13.1707 147.573 13.432 147.808 13.656C148.053 13.8693 148.347 14.04 148.688 14.168C149.04 14.296 149.429 14.36 149.856 14.36C150.229 14.36 150.576 14.3013 150.896 14.184C151.216 14.056 151.493 13.88 151.728 13.656C151.973 13.432 152.16 13.1653 152.288 12.856C152.427 12.5467 152.496 12.2053 152.496 11.832C152.496 11.4373 152.427 11.096 152.288 10.808C152.149 10.5093 151.957 10.264 151.712 10.072C151.467 9.86933 151.179 9.72 150.848 9.624C150.517 9.528 150.165 9.48 149.792 9.48ZM149.744 4.584C149.424 4.584 149.125 4.62667 148.848 4.712C148.571 4.79733 148.325 4.92533 148.112 5.096C147.909 5.26667 147.749 5.48 147.632 5.736C147.515 5.992 147.456 6.28533 147.456 6.616C147.456 6.968 147.52 7.272 147.648 7.528C147.787 7.77333 147.968 7.976 148.192 8.136C148.416 8.296 148.672 8.41867 148.96 8.504C149.248 8.57867 149.547 8.616 149.856 8.616C150.165 8.616 150.453 8.57867 150.72 8.504C150.987 8.41867 151.216 8.28533 151.408 8.104C151.6 7.92267 151.749 7.69333 151.856 7.416C151.973 7.13867 152.032 6.79733 152.032 6.392C152.032 5.816 151.845 5.37333 151.472 5.064C151.099 4.744 150.523 4.584 149.744 4.584ZM148 8.936C147.723 8.76533 147.483 8.60533 147.28 8.456C147.088 8.296 146.928 8.12533 146.8 7.944C146.672 7.76267 146.576 7.56 146.512 7.336C146.459 7.10133 146.432 6.81333 146.432 6.472C146.432 6.088 146.517 5.72533 146.688 5.384C146.859 5.04267 147.088 4.74933 147.376 4.504C147.664 4.248 148 4.05067 148.384 3.912C148.779 3.77333 149.2 3.70933 149.648 3.72C150.075 3.72 150.491 3.77333 150.896 3.88C151.312 3.98667 151.68 4.152 152 4.376C152.32 4.6 152.576 4.888 152.768 5.24C152.96 5.58133 153.056 5.992 153.056 6.472C153.056 7.05867 152.933 7.56 152.688 7.976C152.453 8.392 152.064 8.73333 151.52 9C152.139 9.224 152.624 9.58133 152.976 10.072C153.339 10.5627 153.52 11.1387 153.52 11.8C153.52 12.3547 153.424 12.8453 153.232 13.272C153.051 13.6987 152.784 14.056 152.432 14.344C152.091 14.632 151.675 14.8507 151.184 15C150.693 15.1493 150.149 15.224 149.552 15.224C149.147 15.224 148.731 15.1547 148.304 15.016C147.888 14.8773 147.509 14.6693 147.168 14.392C146.837 14.1147 146.565 13.768 146.352 13.352C146.139 12.936 146.032 12.4507 146.032 11.896C146.032 11.224 146.197 10.6267 146.528 10.104C146.869 9.57067 147.36 9.18133 148 8.936ZM156.107 12.52C156.224 13.128 156.459 13.5867 156.811 13.896C157.173 14.2053 157.669 14.36 158.299 14.36C158.971 14.36 159.504 14.1947 159.899 13.864C160.304 13.5333 160.613 13.1173 160.827 12.616C161.051 12.1147 161.2 11.576 161.275 11C161.36 10.4133 161.413 9.864 161.435 9.352L161.403 9.32C161.061 9.896 160.635 10.3333 160.123 10.632C159.621 10.9307 159.035 11.08 158.363 11.08C157.829 11.08 157.349 10.9947 156.923 10.824C156.496 10.6533 156.128 10.408 155.819 10.088C155.52 9.768 155.285 9.384 155.115 8.936C154.955 8.488 154.875 7.992 154.875 7.448C154.875 6.91467 154.949 6.424 155.099 5.976C155.248 5.51733 155.472 5.12267 155.771 4.792C156.069 4.45067 156.443 4.18933 156.891 4.008C157.349 3.816 157.888 3.72 158.507 3.72C159.264 3.72 159.893 3.86933 160.395 4.168C160.907 4.46667 161.312 4.872 161.611 5.384C161.92 5.896 162.139 6.49867 162.267 7.192C162.395 7.88533 162.459 8.62667 162.459 9.416C162.459 10.376 162.357 11.2187 162.155 11.944C161.952 12.6587 161.664 13.2613 161.291 13.752C160.928 14.2427 160.496 14.6107 159.995 14.856C159.493 15.1013 158.944 15.224 158.347 15.224C157.909 15.224 157.499 15.1707 157.115 15.064C156.731 14.9573 156.395 14.792 156.107 14.568C155.819 14.344 155.584 14.0613 155.403 13.72C155.221 13.3787 155.109 12.9787 155.067 12.52H156.107ZM158.507 4.584C157.643 4.60533 156.992 4.872 156.555 5.384C156.117 5.896 155.899 6.59467 155.899 7.48C155.899 8.344 156.123 9.016 156.571 9.496C157.029 9.976 157.675 10.216 158.507 10.216C158.901 10.216 159.253 10.1413 159.563 9.992C159.883 9.84267 160.149 9.64 160.363 9.384C160.587 9.128 160.752 8.83467 160.859 8.504C160.976 8.16267 161.035 7.8 161.035 7.416C161.035 6.584 160.811 5.912 160.363 5.4C159.915 4.87733 159.296 4.60533 158.507 4.584ZM164.005 18.056C164.773 16.9467 165.371 15.7627 165.797 14.504C166.235 13.2347 166.453 11.9227 166.453 10.568C166.453 9.23467 166.229 7.944 165.781 6.696C165.333 5.448 164.741 4.27467 164.005 3.176H164.821C165.259 3.784 165.648 4.376 165.989 4.952C166.331 5.51733 166.613 6.09867 166.837 6.696C167.072 7.28267 167.248 7.90133 167.365 8.552C167.493 9.192 167.557 9.89067 167.557 10.648C167.557 11.384 167.493 12.0773 167.365 12.728C167.248 13.368 167.072 13.9867 166.837 14.584C166.603 15.1813 166.315 15.7627 165.973 16.328C165.632 16.904 165.248 17.48 164.821 18.056H164.005Z" fill="black"/>
</svg>
